<svg width="500" height="500" xmlns="http://www.w3.org/2000/svg">
 <!-- Created with Method Draw - http://github.com/duopixel/Method-Draw/ -->
 <g>
  <title>background</title>
  <rect fill="#fff" id="canvas_background" height="502" width="502" y="-1" x="-1"/>
  <g display="none" overflow="visible" y="0" x="0" height="100%" width="100%" id="canvasGrid">
   <rect fill="url(#gridpattern)" stroke-width="0" y="0" x="0" height="100%" width="100%"/>
  </g>
 </g>
 <g>
  <title>Layer 1</title>
  <path id="svg_7" d="m24.5,397.25c47,-49 300,-101 266,1c-34,102 -189,86 -189.5,85.75c0.5,0.25 -71.5,-0.75 -88.5,-45.75" fill-opacity="null" stroke-opacity="null" stroke-width="4.5" stroke="#000" fill="#fff"/>
  <path id="svg_10" d="m14.5,441.25c0,0 -7,-29 12,-47" opacity="0.5" stroke-opacity="null" stroke-width="4.5" stroke="#000" fill="#ffffff"/>
  <path id="svg_11" d="m162.5,65.25c47,-49 300,-101 266,1c-34,102 -189,86 -189.5,85.75c0.5,0.25 -71.5,-0.75 -88.5,-45.75" fill-opacity="null" stroke-opacity="null" stroke-width="4.5" stroke="#000" fill="#fff"/>
  <path id="svg_12" d="m152.5,109.25c0,0 -7,-29 12,-47" opacity="0.5" stroke-opacity="null" stroke-width="4.5" stroke="#000" fill="#ffffff"/>
  <line stroke-linecap="null" stroke-linejoin="null" id="svg_13" y2="80.25" x2="153.5" y1="418.25" x1="14.5" stroke-opacity="null" stroke-width="4.5" stroke="#000" fill="none"/>
  <line stroke-linecap="null" stroke-linejoin="null" id="svg_14" y2="78.25" x2="423.5" y1="416.25" x1="284.5" stroke-opacity="null" stroke-width="4.5" stroke="#000" fill="none"/>
  <line stroke="#000" stroke-dasharray="2,2" stroke-linecap="null" stroke-linejoin="null" id="svg_15" y2="483.440912" x2="421.5" y1="82.25" x1="421.5" fill-opacity="null" stroke-opacity="null" stroke-width="4.5" fill="none"/>
  <line stroke="#000" stroke-dasharray="2,2" stroke-linecap="null" stroke-linejoin="null" id="svg_16" y2="484.25" x2="421.889019" y1="484.25" x1="136.5" fill-opacity="null" stroke-opacity="null" stroke-width="4.5" fill="none"/>
  <text xml:space="preserve" text-anchor="start" font-family="Helvetica, Arial, sans-serif" font-size="72" id="svg_17" y="440.25" x="118.5" fill-opacity="null" stroke-opacity="null" stroke-width="0" stroke="#000" fill="#000000">b</text>
  <text xml:space="preserve" text-anchor="start" font-family="Helvetica, Arial, sans-serif" font-size="72" id="svg_18" y="259.804688" x="36.5" fill-opacity="null" stroke-opacity="null" stroke-width="0" stroke="#000" fill="#000000">L</text>
  <text xml:space="preserve" text-anchor="start" font-family="Helvetica, Arial, sans-serif" font-size="72" id="svg_19" y="306.25" x="424.5" fill-opacity="null" stroke-opacity="null" stroke-width="0" stroke="#000" fill="#000000">h</text>
 </g>
</svg>