<?xml version="1.0" encoding="utf-8" standalone="yes"?>
<svg xmlns="http://www.w3.org/2000/svg" xmlns:xlink="http://www.w3.org/1999/xlink" version="1.1"
	viewBox="-255 -200 495 415">
<title>Tangent function</title>
<defs>
	<pattern id="grid" width="30" height="20" patternUnits="userSpaceOnUse">
		<path d="M0,0h30v20" fill="none" stroke="#999"/>
	</pattern>
</defs>
<rect x="-240" y="-200" width="480" height="400" fill="url(#grid)" stroke="#000"/>
<g fill="none" stroke="#f00" stroke-width="2">
	<g id="set">
	<path d="M-60,-200V200 M60,-200V200" stroke="#00f" stroke-dasharray="3,3" stroke-width="1"/>
	<path d="M-56,200 Q -53,89 -51,79 -48,57 -45,48 -42,39 -39,33 -37,28 -34,24 -31,21 -28,18 -25,15 -22,13 -20,11 -17,9.4 -14,7.7 -11,6.1 -8.4,4.5 -5.6,3 -2.8,1.5 0,-0 2.8,-1.5 5.6,-3 8.4,-4.5 11,-6.1 14,-7.7 17,-9.4 20,-11 22,-13 25,-15 28,-18 31,-21 34,-24 37,-28 39,-33 42,-39 45,-48 48,-57 51,-79 53,-89 56,-200"/>
	</g>
	<use xlink:href="#set" x="120"/><use xlink:href="#set" x="-120"/>
	<path d="M0,0 Q 2.8,-1.5 5.6,-3 8.4,-4.5 11,-6.1 14,-7.7 17,-9.4 20,-11 22,-13 25,-15 28,-18 31,-21 34,-24 37,-28 39,-33 42,-39 45,-48 48,-57 51,-79 53,-89 56,-200" transform="translate(-240,0)"/>
	<path d="M-56,200 Q -53,89 -51,79 -48,57 -45,48 -42,39 -39,33 -37,28 -34,24 -31,21 -28,18 -25,15 -22,13 -20,11 -17,9.4 -14,7.7 -11,6.1 -8.4,4.5 -5.6,3 -2.8,1.5 0,0" transform="translate(240,0)"/>
</g>
<g font-size="12" fill="black" font-family="Times" text-anchor="middle">
	<text y="213"><tspan x="0">0</tspan><tspan x="60">π/2</tspan><tspan x="120">π</tspan><tspan x="180">3π/2</tspan><tspan x="233">2π</tspan>
	<tspan x="-60">−π/2</tspan><tspan x="-120">−π</tspan><tspan x="-180">−3π/2</tspan><tspan x="-240">−2π</tspan></text>
	<text x="-248" y="3">0</text>
	<text x="-248" y="43">−2</text><text x="-248" y="83">−4</text>
	<text x="-248" y="123">−6</text><text x="-248" y="163">−8</text>
	<text x="-248" y="-37">2</text><text x="-248" y="-77">4</text>
	<text x="-248" y="-117">6</text><text x="-248" y="-157">8</text>
</g>
</svg>